/* XPM */
static char *rubykaigi[] = {
/* columns rows colors chars-per-pixel */
"185 39 2 1 ",
"  c white",
". c black",
/* pixels */
"                                                                                                                                                                                         ",
"                                                                                                                                                                                         ",
"                                                                                                                                                                                         ",
"                                                                                                                                                                                         ",
"                                                                                                                                                                                         ",
"                                                                                                                                                                                         ",
"                                                    .....                                                                                      .....                             .....   ",
"     .............                                 ......                                      ......        .......                          ......                            ......   ",
"     ...............                               ......                                      ......       .......                           ......                            ......   ",
"     ................                              ......                                      ......     ........                            ......                            ......   ",
"     .................                             .....                                       ......    ........                             . ..                              .  .     ",
"    ....... . ........                             .....                                      ......    ........                                                                         ",
"    ......      ......     ......      ......     ......   .....       .....         ......   ......   .......           . ........          ......         .....   ......     ......    ",
"    ......      ......     ......      ......     ...... .........     ......       ......    ......  .......          ..............        ......       ......... ......     ......    ",
"    ......      ......    ......       .....      ................      .....       ......    ..............           ...............       ......      ................      .....     ",
"    ......     ......      .....      ......      .................     .....      ......    ..............            ...............       .....      .................      .....     ",
"   ......     .......     ......      ......      ........   ......     .....      .....     ............              .        ......       .....     .......   ........      .....     ",
"   .................      ......      ......     .......     .......    ......    ......     ...........                         ......     ......     ......     .......     ......     ",
"   ...............        ......      ......     ......       .....      .....    .....      ...........                 ..............     ......    ......       ......     ......     ",
"   ..............         .....       .....      ......       ......     .....   ......      ............              ...............      ......    ......      ......      ......     ",
"   ...............        .....       .....      .....        ......     .....   .....       ............            .................      .....     .....        .....      .....      ",
"  .......   .......      ......      ......      .....        .....      .....  ......      ...... .......           ....... .. ......     ......    ......       ......      .....      ",
"  ......     ......      ......      ......     ......       ......      .....  .....       ......  .......         ......      ......      .....    ......       ......     ......      ",
"  ......      ......     ......      ......     ......       ......       ...........       ......   .......        .....       ......     ......    ......       ......     ......      ",
"  ......      ......     ......     .......     .......     ......        ..........        ......    .......       .....      ......      ......    ......      .......     ......      ",
" .......      ......     ......    .......      .......   ........        .........        .......     .......     .......    .......      .....     ........   .......      .....       ",
" ......        ......    .................      .................          ........        ......      .......      .................      .....      .................      .....       ",
" ......        ......    .................      ................           .......         ......       .......     .................     ......       ................     ......       ",
" ......        ......     ......... .....      ...... .........            .......         ......        .......     ........  ......     ......       ......... ......     ......       ",
" ......        ......      ......   ......     ......  ......              ......          ......         .......     ......   .....      ......         .....   .....      ......       ",
"                                                                           .....                                                                                ......                   ",
"                                                                           .....                                                                                ......                   ",
"                                                                          .....                                                                      ..       .......                    ",
"                                                                      .........                                                                      ...............                     ",
"                                                                     .........                                                                       ..............                      ",
"                                                                     ........                                                                        .............                       ",
"                                                                     ......                                                                           .........                          ",
"                                                                                                                                                                                         ",
"                                                                                                                                                                                         "
};
